<svg version="1" xmlns="http://www.w3.org/2000/svg" width="2730.667" height="2730.667" viewBox="0 0 2048.000000 2048.000000"><path d="M443.1 246c-.4.3-1.3 3.9-1.9 8-.7 4.1-2.1 12.2-3.1 18-1.1 5.8-2.2 12.1-2.5 14-1.5 8.6-2.6 14.7-3 16.6-.2 1.2-.7 3.9-1 6-.4 2.2-2.9 16.7-5.7 32.4-2.8 15.7-6.1 34.7-7.4 42.3-1.3 7.6-2.6 14.5-2.9 15.5-.2.9-.7 3.9-1.1 6.6-.3 2.7-.8 5.2-1 5.5-.1.3-.6 3.1-1 6.1-.4 3-.8 5.7-1 6-.2.3-.6 2.7-.9 5.4-.4 2.7-.9 5.2-1.1 5.6-.2.4-.7 2.8-1 5.4-.4 2.6-1.5 9.2-2.5 14.7l-1.7 9.9h233.9c222.3 0 233.9.1 233.4 1.7-.6 2-1.6 7.5-2 11.3-.3 2-4.6 26.7-8.1 46-.2 1.4-.9 5.2-1.4 8.5-.6 3.3-1.2 6.9-1.4 8-.3 1.1-.8 4.2-1.1 6.8-.4 2.7-.9 5.9-1.2 7-.4 2.2-6.1 34.3-11.4 65.2-1.7 9.3-3.2 17.9-3.4 19-.2 1.1-.7 4.2-1.1 7-.5 2.7-.9 5.2-1 5.5-.1.3-.5 2.5-.9 5-.7 4.1-6.1 34.9-7.2 41-1.1 6.7-3.6 20.8-4 23.5-.2 1.6-.9 5.7-1.5 9s-1.3 7-1.5 8.2c-.2 1.3-.6 3.5-.9 5-.3 1.6-3.4 19.7-7 40.3-3.6 20.6-6.7 38.6-7 40-.2 1.4-2 11.9-4 23.5-2 11.5-4.2 24.4-5 28.5-.7 4.1-1.6 9.3-2 11.5-.3 2.2-.7 4.7-1 5.5-.2.8-.6 3.3-1 5.5-.5 3.7-1.2 7.8-2.1 13-1.4 7.6-7.7 43.4-7.9 45-.2 1.1-1.7 10.1-3.5 20-1.7 9.9-3.4 19.3-3.7 21-.7 4.5-3.7 21.5-4.8 27.5-.3 1.4-.7 4.3-1.1 6.5-.3 2.2-.7 4.7-.9 5.5-.2.8-.7 3.3-1 5.5-.3 2.3-.8 5.2-1 6.5-.3 1.4-.8 3.8-1 5.5-.3 1.6-1.5 8.2-2.6 14.5-1.1 6.3-2.9 16.7-4 23-1.1 6.3-2.2 12.6-2.4 14-.8 4.2-5.7 32.4-6 34.5-.2 1.1-1.2 7.2-2.3 13.5-1.2 6.3-2.4 13.1-2.7 15-.3 1.9-.8 4.2-1 5-.2.8-.7 3.5-1 6-.3 2.5-1.2 7.9-2 12s-2.2 11.8-3 17c-.9 5.2-1.8 10.6-2.1 12-.2 1.4-.7 4.1-.9 6-.3 1.9-.7 4.4-1 5.5-.2 1.1-1.6 8.7-3 17-1.4 8.2-2.8 16.1-3.1 17.5-.2 1.4-.7 4.1-1 6-1.1 7.1-1.8 10.7-2.9 16-.3 1.4-.7 4.1-1 6-.2 1.9-.7 4.8-1 6.5-.9 4.4-2.8 15.2-10.1 57.5-.8 4.7-1.6 9.2-1.9 10-.2.8-.6 3.5-.9 6-.6 4.3-1 6.5-2.1 12-.3 1.4-.8 4.2-1.1 6.4-.3 2.1-.8 4.8-1 6-.4 2.2-1.1 6.3-1.9 11-.2 1.6-.9 5.2-1.4 8-1 4.8-1.6 8.6-2.6 14.8-.2 1.5-.9 5.5-1.5 9s-1.3 7.4-1.5 8.8c-.3 1.4-1 5.2-1.6 8.5-.6 3.3-1.2 6.9-1.4 8-.1 1.1-.5 3.3-.8 5-.3 1.6-.9 4.6-1.1 6.5-.7 4.1-1.3 7.6-2.6 14.5-.5 2.7-1.2 6.6-1.5 8.5-.3 1.9-1 5.7-1.5 8.5-.5 2.7-1.2 6.8-1.5 9-1.1 6.7-1.6 9.5-4 23-1.3 7.1-2.9 15.9-3.5 19.5-.5 3.6-1.2 7.7-1.5 9.2-.3 1.6-.7 3.8-.9 5-.2 1.3-1.1 6.1-1.9 10.8-.9 4.7-1.8 10.3-2.2 12.5-.5 3.7-2 12.2-2.9 17.1-.2 1.2-.7 3.9-1 6-.7 4.5-2.4 13.8-3.1 17.4-.3 1.4-.8 4.1-1.1 6-.3 1.9-1.6 9.6-2.9 17-1.3 7.4-2.6 15.1-2.9 17-.5 3.3-.9 5.1-2.1 11-.3 1.4-.7 4.3-1.1 6.5-.3 2.2-.7 4.7-.9 5.5-.2.8-.7 3.7-1.1 6.5-.3 2.7-.8 5.2-.9 5.5-.2.3-.6 2.6-.9 5-.6 4.3-.9 6-2.1 12-.3 1.4-.8 4.1-1.1 6-.4 3-1.6 10.1-4.9 28.5-.4 2.2-.9 4.9-1 6.1-.2 1.1-1.2 7-2.3 13-1.2 6-2.4 13-2.8 15.6l-.6 4.8h263l2-11.2c1.1-6.2 2.4-13.3 2.7-15.8.4-2.5.9-5.4 1.1-6.5.8-4.3 5.4-30.2 5.9-33.5.3-1.9.7-4.6 1-6 .3-1.4.7-4.1 1-6 .6-3.4 3-16.9 3.9-22 .3-1.4 1.4-7.9 2.6-14.5 1.1-6.6 2.2-13.1 2.4-14.5.3-1.4.7-4.1 1-6 .3-1.9.7-4.4 1-5.5.2-1.1.7-4 1.2-6.5.4-2.5.8-4.7.9-5 0-.3.4-2.7.9-5.3.4-2.7.9-5.9 1.2-7 .2-1.2.7-4.2 1-6.7.3-2.5.8-4.8 1-5.1.2-.4.6-2.8.9-5.5.4-2.7 1-6.7 1.5-8.9s1.1-5.4 1.4-7c.2-1.7 2.6-15.2 5.1-30 2.6-14.9 4.8-27.9 5-29 .3-2.3 4.3-24.9 4.9-28.2.3-1.1.8-4.3 1.2-7 .5-2.6.9-5 .9-5.3.1-.3.5-2.8 1-5.5.4-2.8.9-5.9 1.1-7 .5-2.2.6-3 2.9-16.5 1-5.2 1.9-10.9 2.2-12.5.2-1.7 1.1-6.6 1.8-11 .8-4.4 1.7-9.6 2-11.5.3-1.9.8-4.2 1-5 .2-.8.6-3.1.9-5 .5-3.1 2.2-13.4 7.1-41.5.7-4.4 1.6-9.6 2-11.5.3-1.9 1-6.1 1.6-9.2 1.5-8.7 1.6-9.2 4.4-25.3 1.4-8.3 2.8-16.4 3.1-18 .2-1.7.9-5.6 1.4-8.7.6-3.2 1.2-6.8 1.4-8 .2-1.3 1.1-6.1 1.9-10.8.9-4.7 1.8-9.9 2-11.5.3-1.7 1.2-7.3 2.2-12.5 2.3-13.5 2.4-14.3 2.9-16.5.2-1.1.7-4.3 1.1-7 .5-2.8.9-5.2 1-5.5.1-.3.5-2.8.9-5.5.4-2.8 1-6.3 1.2-7.9.3-1.6.6-3.2.8-3.5.2-.3.7-2.6 1-5.1.3-2.5.8-5.5 1-6.6.2-1.2.7-3.9 1.1-6 1.3-8.3 1.6-10 2.2-12.9.3-1.7.7-3.7.8-4.5.2-.8.5-2.9.8-4.5.3-1.7 1.7-9.8 3.1-18 1.4-8.3 2.8-16.1 3.1-17.5.2-1.3.7-4.2 1.1-6.5.3-2.2.9-5.8 1.4-8 .5-2.2 1.1-6.2 1.5-8.9.3-2.7.7-5.1.9-5.5.2-.3.7-2.6 1-5.1.3-2.5.8-5.5 1-6.7.3-1.1.8-4.3 1.2-7 .5-2.6.9-5 .9-5.3.1-.3.5-2.5.9-5 .5-2.5 1-5.4 1.2-6.5.7-3.3 1.2-6.3 3.9-22.5 1.4-8.5 2.8-16.6 3.1-18 .8-4.7 3.3-18.5 3.9-22 .3-1.9.7-4.6 1-6 .3-1.4.7-3.9.9-5.5.3-1.7 1.4-8.4 2.6-15 1.1-6.6 2.3-13.2 2.5-14.7.2-1.5.9-5.4 1.5-8.7.6-3.4 1.3-7.1 1.5-8.3.2-1.3 1.3-7.7 2.5-14.3 1.2-6.6 2.3-13.4 2.6-15 .2-1.7.6-4.1.9-5.5.3-1.4 2.1-11.8 4-23.1 3.5-20.2 4-22.9 5-27.9.2-1.4.7-3.9.9-5.5 1.6-10.1 2.6-16.3 3-18.1.2-1.2.7-3.9 1-6 .4-2.2 1.3-7.5 2.1-11.9s1.7-9.7 2.1-11.9c.3-2.1.8-4.8 1-6 .2-1.1.6-3.2.9-4.6 2.3-13.7 3.8-22 4.1-24.5.3-1.7 1.2-6.8 2-11.5.9-4.7 1.8-9.9 2.1-11.5.2-1.7.6-4.1.9-5.5.4-2.4 8-45.9 8.8-51 .3-1.4 1.4-8.1 2.6-15 1.2-6.9 2.4-13.6 2.6-15 .3-1.4 2-11.7 4-23 3.7-21.6 4.1-24.2 4.8-27.6.2-1.2.7-3.9 1-6 .4-2.2 1.8-10.2 3.1-17.9 1.4-7.7 2.7-15.8 3-18 .4-2.2.8-4.8 1.1-5.7.6-2 1-4 1.8-9.9.9-6 1.4-9.3 2.6-15.4.5-2.8 1.2-6.5 1.5-8.3 1.5-9.5 3.1-18.6 4-23.2.3-1.4.7-3.9 1-5.5.3-2.4 6.8-40.3 9.2-54 .3-1.7.6-3.5.7-4.2.1-.7.4-1.5.7-1.8.3-.3 106.4-.5 235.7-.5 223.3 0 235.1-.1 235.6-1.8.3-.9.8-3.1 1-4.7.2-1.7.9-5.9 1.5-9.5.7-3.6 1.4-7.6 1.7-9 .2-1.4 1.5-8.8 2.9-16.5 1.3-7.7 2.7-15.7 3.1-17.9.3-2.1.8-4.8 1-6 .4-1.9 1.5-8.3 2.9-16.1.3-1.7.7-4.1 1-5.5.9-5.3 3.7-20.8 5-28.5.7-4.4 1.6-9.4 1.9-11 .3-1.7.8-4.8 1.2-7 .3-2.2.7-4.5.9-5 .6-3 6.4-35.1 7-39.5.2-1.4.8-4.8 1.4-7.5.5-2.8 1.2-7 1.6-9.5.4-2.5 1.4-8.5 2.4-13.3 1.2-6.1 1.4-9 .7-9.5-1.3-.7-1198.4-1-1199.5-.2z"/></svg>